<svg t="1740548070753" class="icon" viewBox="0 0 1024 1024" version="1.1" xmlns="http://www.w3.org/2000/svg" p-id="8724" width="200" height="200"><path d="M981.105778 185.116444H98.872889a42.040889 42.040889 0 0 0 0 84.138667h97.450667v516.664889A181.248 181.248 0 0 0 377.173333 967.111111h325.688889a181.248 181.248 0 0 0 180.849778-181.191111V269.141333h97.393778a42.040889 42.040889 0 0 0 0-84.024889zM486.968889 700.984889a42.040889 42.040889 0 1 1-84.024889 0V436.792889a42.040889 42.040889 0 1 1 84.024889 0v264.192z m190.065778 0a42.040889 42.040889 0 1 1-83.968 0V436.792889a42.040889 42.040889 0 1 1 83.968 0v264.192zM379.164444 141.084444h321.706667a42.040889 42.040889 0 0 0 0-84.138666H379.164444a42.040889 42.040889 0 0 0 0 84.195555z" fill="#6E7584" p-id="8725"></path></svg>